# xmcd
#
# Track frame offsets:
#	150
#	16005
#	34477
#	61272
#	90362
#	130875
#
# Disc length: 2229 seconds
#
# Revision: 2
# Processed by: cddbd v1.5.2PL0 Copyright (c) Steve Scherf et al.
# Submitted via: audiograbber 1.83.01
#
DISCID=4108b306
DTITLE=Juliet Roberts - Caught In The Middle [CDM)
DYEAR=1993
DGENRE=House
TTITLE0=Caught In The Middle (Gospel Revival Edit)
TTITLE1=Caught In The Middle (Hip Hop Edit)
TTITLE2=Caught In The Middle (Monster Club Mix)
TTITLE3=Caught In The Middle (Fire Island Mix)
TTITLE4=Caught In The Middle (Gospel Revival Mix)
TTITLE5=Caught In The Middle (Roach Motel Mix)
EXTD=TR.
EXTT0=
EXTT1=
EXTT2=
EXTT3=
EXTT4=
EXTT5=
PLAYORDER=
